<!-- Generator: Adobe Illustrator 17.0.0, SVG Export Plug-In  -->
<svg version="1.1"
	 xmlns="http://www.w3.org/2000/svg" xmlns:xlink="http://www.w3.org/1999/xlink"
	 x="0px" y="0px" viewBox="0 0 12.308 11.717" enable-background="new 0 0 12.308 11.717"
	 xml:space="preserve">
<defs>
</defs>
<path fill="none"  stroke-width="1.1" stroke-linecap="round" stroke-linejoin="round" stroke-miterlimit="10" d="
	M6.366,1.534c0.554,0.148,1.139,0.023,1.707-0.061C8.64,1.389,9.259,1.355,9.748,1.654s0.729,1.052,0.327,1.461
	c-0.37,0.376-0.985,0.254-1.511,0.229C7.889,3.31,7.221,3.483,6.577,3.69S5.298,4.143,4.633,4.263
	c-0.666,0.12-1.377,0.105-1.986-0.19C1.295,3.416,1.29,1.724,2.544,0.952c0.489-0.301,1.289-0.48,1.844-0.369
	C5.119,0.729,5.65,1.343,6.366,1.534z"/>
<path fill="none"  stroke-width="1.1" stroke-linecap="round" stroke-linejoin="round" stroke-miterlimit="10" d="
	M0.55,4.207c0.768,1.531,2.073,2.768,3.901,2.44c0.665-0.12,1.301-0.365,1.944-0.572c0.643-0.208,1.312-0.38,1.987-0.347
	c0.837,0.041,1.222-0.09,1.952-0.452c0.41-0.204,0.863-0.483,1.059-0.897"/>
<path fill="none"  stroke-width="1.1" stroke-linecap="round" stroke-linejoin="round" stroke-miterlimit="10" d="
	M1.813,8.543c-0.353,1.86,1.775,2.854,3.301,2.579c0.665-0.12,1.301-0.365,1.944-0.572c0.643-0.208,1.312-0.38,1.987-0.347
	c0.837,0.041,1.222-0.09,1.952-0.452"/>
<path fill="none"  stroke-width="1.1" stroke-linecap="round" stroke-linejoin="round" stroke-miterlimit="10" d="
	M3.342,8.668c0.877-0.036,1.596,0.427,2.531,0.259c0.666-0.12,1.301-0.365,1.944-0.572c0.643-0.208,1.312-0.38,1.987-0.347
	c0.527,0.026,1.142,0.148,1.511-0.229c0.37-0.377,0.503-0.932,0.418-1.454"/>
</svg>
