<!-- Generator: Adobe Illustrator 17.0.0, SVG Export Plug-In  -->
<svg version="1.1"
	 xmlns="http://www.w3.org/2000/svg" xmlns:xlink="http://www.w3.org/1999/xlink"
	 x="0px" y="0px"  viewBox="0 0 37.623 37.253" enable-background="new 0 0 37.623 37.253"
	 xml:space="preserve">
<defs>
</defs>
<line fill="none" stroke="#A0A2A6" stroke-width="3.5" stroke-linecap="round" stroke-linejoin="round" stroke-miterlimit="10" x1="16.734" y1="26.839" x2="24.5" y2="21.801"/>
<line fill="none" stroke="#A0A2A6" stroke-width="3.5" stroke-linecap="round" stroke-linejoin="round" stroke-miterlimit="10" x1="11.329" y1="23.8" x2="8.377" y2="13.42"/>
<path fill="#A0A2A6" d="M11.923,25.914c1.385,0,2.727,0.736,3.439,2.036c1.041,1.897,0.346,4.279-1.552,5.319
	c-0.598,0.328-1.244,0.484-1.88,0.484c-1.385,0-2.727-0.736-3.44-2.036c-1.04-1.898-0.345-4.279,1.553-5.32
	C10.64,26.07,11.286,25.914,11.923,25.914 M11.923,22.414L11.923,22.414c-1.24,0-2.472,0.316-3.563,0.914
	c-1.737,0.953-3,2.525-3.555,4.427s-0.336,3.907,0.616,5.644c1.303,2.377,3.797,3.854,6.509,3.854c1.24,0,2.472-0.317,3.562-0.915
	c3.587-1.966,4.906-6.484,2.939-10.071C17.129,23.89,14.635,22.414,11.923,22.414"/>
<path fill="#A0A2A6" d="M7.418,3.5c1.385,0,2.727,0.736,3.439,2.036c1.041,1.897,0.346,4.279-1.552,5.319
	c-0.598,0.328-1.244,0.484-1.88,0.484c-1.385,0-2.727-0.736-3.44-2.036c-1.04-1.898-0.345-4.279,1.553-5.32
	C6.135,3.656,6.781,3.5,7.418,3.5 M7.418,0L7.418,0c-1.24,0-2.472,0.316-3.563,0.914c-1.737,0.953-3,2.525-3.555,4.427
	s-0.336,3.907,0.616,5.644c1.303,2.377,3.797,3.854,6.509,3.854c1.24,0,2.472-0.317,3.562-0.915
	c3.587-1.966,4.906-6.484,2.939-10.071C12.624,1.476,10.13,0,7.418,0"/>
<path fill="#A0A2A6" d="M30.202,15.5c1.385,0,2.727,0.736,3.439,2.036c1.041,1.897,0.346,4.279-1.552,5.319
	c-0.598,0.328-1.244,0.484-1.88,0.484c-1.385,0-2.727-0.736-3.44-2.036c-1.04-1.898-0.345-4.279,1.553-5.32
	C28.919,15.656,29.565,15.5,30.202,15.5 M30.202,12L30.202,12c-1.24,0-2.472,0.316-3.563,0.914c-1.737,0.953-3,2.525-3.555,4.427
	c-0.555,1.902-0.336,3.907,0.616,5.644c1.303,2.377,3.797,3.854,6.509,3.854c1.24,0,2.472-0.317,3.562-0.915
	c3.587-1.966,4.906-6.484,2.939-10.071C35.408,13.476,32.914,12,30.202,12"/>
</svg>
