<!-- Generator: Adobe Illustrator 17.0.0, SVG Export Plug-In  -->
<svg version="1.1"
	 xmlns="http://www.w3.org/2000/svg" xmlns:xlink="http://www.w3.org/1999/xlink" xmlns:a="http://ns.adobe.com/AdobeSVGViewerExtensions/3.0/"
	 x="0px" y="0px"  viewBox="0 0 41.627 36.113" enable-background="new 0 0 41.627 36.113"
	 xml:space="preserve">
<defs>
</defs>
<path fill="none" stroke-width="2.5" stroke-linecap="round" stroke-linejoin="round" stroke-miterlimit="10" d="
	M27.145,25.349c-1.259,1.785-3.609,2.986-6.3,2.986c-2.692,0-5.043-1.201-6.301-2.987"/>
<g>
	<path fill="none" stroke-width="2.5" stroke-linecap="round" stroke-linejoin="round" stroke-miterlimit="10" d="
		M5.838,24.55c-0.375,0.19-0.782,0.295-1.207,0.295c-1.867,0-3.381-2.01-3.381-4.489s1.514-4.489,3.381-4.489
		c0.401,0,0.786,0.093,1.143,0.263"/>
	<path fill="none" stroke-width="2.5" stroke-linecap="round" stroke-linejoin="round" stroke-miterlimit="10" d="
		M36.118,24.55c0.348,0.19,0.726,0.295,1.12,0.295c1.733,0,3.138-2.01,3.138-4.489s-1.405-4.489-3.138-4.489
		c-0.372,0-0.73,0.093-1.061,0.263"/>
	<path fill="none" stroke-width="2.5" stroke-linecap="round" stroke-linejoin="round" stroke-miterlimit="10" d="
		M36.116,20.372c-0.15,8.028-6.93,14.491-15.272,14.491c-8.436,0-15.275-6.61-15.275-14.764c0-2.139,0.471-4.171,1.317-6.006"/>
</g>
<g>
	<path fill="none" stroke-width="2.5" stroke-linecap="round" stroke-linejoin="round" stroke-miterlimit="10" d="
		M12.523,19.68c0-1.315,1.066-2.381,2.381-2.381s2.381,1.066,2.381,2.381"/>
	<path fill="none" stroke-width="2.5" stroke-linecap="round" stroke-linejoin="round" stroke-miterlimit="10" d="
		M25.194,19.68c0-1.315,1.066-2.381,2.381-2.381c1.315,0,2.381,1.066,2.381,2.381"/>
</g>
<path fill="none" stroke-width="2.5" stroke-linecap="round" stroke-linejoin="round" stroke-miterlimit="10" d="
	M7.297,14.016c1.76-3.472,3.707-4.683,5.173-5.142c2.146-0.673,4.626-0.161,9.566,0.857c1.106,0.228,2.795,0.614,5.031,0.357
	c1.21-0.139,2.186-0.421,2.834-0.643c0.224,0.79,0.608,1.729,1.275,2.642c0.585,0.801,1.148,1.256,1.275,1.357
	c0.606,0.481,1.117,0.702,1.275,0.786c0.739,0.389,2.347,1.777,2.184,6.142c0.776-1.153,0.876-3.026,1.217-5.499
	c0.173-1.254,0.427-3.289-0.567-5.428c-0.37-0.796-0.929-1.999-2.267-2.642c-1.188-0.571-2.346-0.392-2.834-0.286
	c-1.015-1.757-2.165-2.774-2.976-3.357c-4.846-3.485-11.319-1.373-15.093-0.143c-1.626,0.53-3.112,1.198-4.535,2.428
	c-0.83,0.718-2.142,1.88-2.834,3.856c-0.616,1.758-0.459,3.355-0.354,4.428c0.103,1.051,0.317,1.909,0.496,2.5
	C6.542,15.492,6.92,14.754,7.297,14.016z"/>
</svg>
