<!-- Generator: Adobe Illustrator 17.0.0, SVG Export Plug-In  -->
<svg version="1.1"
   viewBox="0 0 52.795 48.006" enable-background="new 0 0 52.795 48.006"
	 xml:space="preserve">
<defs>
</defs>
<path d="M1.824,28.587h4.3v17.539c0,1.034,0.83,1.879,1.843,1.879h12.594c1.013,0,1.843-0.846,1.843-1.879V33.285
	h7.679v12.841c0,1.034,0.829,1.879,1.843,1.879h11.98c1.014,0,1.843-0.846,1.843-1.879V28.587h5.222
	c0.737,0,1.413-0.469,1.689-1.159c0.277-0.689,0.123-1.503-0.399-2.035L28.24,0.556c-0.707-0.72-1.874-0.751-2.58-0.031
	L0.564,25.362c-0.553,0.532-0.707,1.347-0.43,2.067C0.411,28.149,1.086,28.587,1.824,28.587L1.824,28.587z M26.888,4.534
	l19.658,20.295h-2.642c-1.014,0-1.843,0.846-1.843,1.879v17.539h-8.293V31.406c0-1.034-0.829-1.879-1.843-1.879H20.561
	c-1.014,0-1.843,0.846-1.843,1.879v12.841H9.81V26.708c0-1.034-0.83-1.879-1.843-1.879H6.37L26.888,4.534z M26.888,4.534"/>
</svg>
