<!-- Generator: Adobe Illustrator 17.0.0, SVG Export Plug-In  -->
<svg version="1.1"
	 xmlns="http://www.w3.org/2000/svg" xmlns:xlink="http://www.w3.org/1999/xlink"
	 x="0px" y="0px" viewBox="0 0 33.343 39.978" enable-background="new 0 0 33.343 39.978"
	 xml:space="preserve">
<defs>
</defs>
<g>
	<path fill="none"  stroke-width="3" stroke-linecap="round" stroke-linejoin="round" stroke-miterlimit="10" d="
		M23.294,18.519c0.424,1.374,0.423,2.891-0.099,4.349c-1.282,3.582-5.226,5.446-8.808,4.164"/>
	<path fill="none"  stroke-width="3" stroke-linecap="round" stroke-linejoin="round" stroke-miterlimit="10" d="
		M10.049,21.459c-0.424-1.374-0.423-2.891,0.099-4.349c1.282-3.582,5.226-5.446,8.808-4.164"/>

		<polyline fill="none"  stroke-width="3" stroke-linecap="round" stroke-linejoin="round" stroke-miterlimit="10" points="
		7.286,21.797 10.287,24.665 12.848,21.398 	"/>

		<polyline fill="none"  stroke-width="3" stroke-linecap="round" stroke-linejoin="round" stroke-miterlimit="10" points="
		26.088,19.674 23.001,16.899 20.54,20.242 	"/>
</g>
<path fill="none"  stroke-width="3" stroke-linecap="round" stroke-linejoin="round" stroke-miterlimit="10" d="
	M1.5,5.197c0-0.722,3.066,0.817,7.289-0.035C11.148,4.686,16.615,1.5,16.615,1.5s5.667,3.355,8.275,3.908
	c3.248,0.689,6.725-1.393,6.725-1.393c0.671,0.367-0.108,17.413-2.737,22.27c-4.938,9.126-12.263,12.192-12.263,12.192
	s-7.906-4.077-12.19-11.972C2.296,22.583,1.5,9.787,1.5,5.197z"/>
</svg>
