<!-- Generator: Adobe Illustrator 17.0.0, SVG Export Plug-In  -->
<svg version="1.1"
	 xmlns="http://www.w3.org/2000/svg" xmlns:xlink="http://www.w3.org/1999/xlink"
	 x="0px" y="0px" viewBox="0 0 14.528 12.281" enable-background="new 0 0 14.528 12.281"
	 xml:space="preserve">
<defs>
</defs>
<g>
	<clipPath id="SVGID_2_">
				<rect id="SVGID_1_" x="0" y="0" width="14.528" height="12.281"/>
	</clipPath>

		<path clip-path="url(#SVGID_2_)" fill="none" stroke-width="1.1" stroke-linecap="round" stroke-linejoin="round" stroke-miterlimit="10" d="
		M9.852,2.046c0.513,0.257,1.111,0.254,1.683,0.287c0.573,0.033,1.185,0.126,1.604,0.518s0.501,1.178,0.024,1.497
		c-0.439,0.293-1.016,0.048-1.527-0.084c-0.654-0.17-1.344-0.137-2.016-0.064C8.948,4.273,8.276,4.383,7.6,4.365
		c-0.676-0.018-1.37-0.177-1.905-0.59C4.504,2.858,4.843,1.2,6.228,0.7c0.54-0.195,1.359-0.208,1.88,0.013
		C8.795,1.004,9.189,1.714,9.852,2.046z"/>

		<path clip-path="url(#SVGID_2_)" fill="none" stroke-width="1.1" stroke-linecap="round" stroke-linejoin="round" stroke-miterlimit="10" d="
		M4.162,3.509C2.915,4.186,5.081,6.613,6.938,6.663c0.676,0.018,1.348-0.093,2.02-0.166c0.672-0.072,1.361-0.105,2.016,0.064
		c0.811,0.211,1.215,0.161,2.003-0.046c0.443-0.116,1.233-0.366,0.937-1.194"/>

		<path clip-path="url(#SVGID_2_)" fill="none" stroke-width="1.1" stroke-linecap="round" stroke-linejoin="round" stroke-miterlimit="10" d="
		M1.056,8.313c-1.75,1.958,1.476,3.591,3.015,3.403c0.672-0.082,1.319-0.291,1.974-0.462c0.654-0.171,1.331-0.305,2.003-0.234
		c0.834,0.088,1.225-0.021,1.974-0.342"/>

		<path clip-path="url(#SVGID_2_)" fill="none" stroke-width="1.1" stroke-linecap="round" stroke-linejoin="round" stroke-miterlimit="10" d="
		M3.015,6.125c-3.833,0.958,0,3.958,1.958,3.309c0.642-0.213,1.3,0.321,1.954,0.15C7.581,9.413,8.258,9.278,8.93,9.35
		c0.525,0.055,1.703,0.147,1.46-1.478"/>
</g>
</svg>
