<!-- Generator: Adobe Illustrator 17.0.0, SVG Export Plug-In  -->
<svg version="1.1"
   viewBox="0 0 32 39.461" enable-background="new 0 0 32 39.461"
	 xml:space="preserve">
<defs>
</defs>
<path d="M28.053,39.461H3.947C1.771,39.461,0,37.69,0,35.514V3.947C0,1.771,1.771,0,3.947,0h24.105
	C30.229,0,32,1.771,32,3.947v31.567C32,37.69,30.229,39.461,28.053,39.461z M3.947,3C3.425,3,3,3.425,3,3.947v31.567
	c0,0.522,0.425,0.947,0.947,0.947h24.105c0.522,0,0.947-0.425,0.947-0.947V3.947C29,3.425,28.575,3,28.053,3H3.947z"/>
<path d="M23.875,27.344H8.062c-0.828,0-1.5-0.671-1.5-1.5s0.672-1.5,1.5-1.5h15.813c0.828,0,1.5,0.671,1.5,1.5
	S24.703,27.344,23.875,27.344z"/>
<path d="M23.875,33.156H8.062c-0.828,0-1.5-0.671-1.5-1.5s0.672-1.5,1.5-1.5h15.813c0.828,0,1.5,0.671,1.5,1.5
	S24.703,33.156,23.875,33.156z"/>
<path d="M19.346,18.695l-0.206,0.843c-0.619,0.244-1.113,0.43-1.481,0.558c-0.368,0.128-0.796,0.192-1.284,0.192
	c-0.749,0-1.332-0.183-1.747-0.548c-0.415-0.366-0.623-0.83-0.623-1.392c0-0.218,0.015-0.442,0.046-0.67
	c0.032-0.228,0.082-0.486,0.151-0.773l0.773-2.736c0.069-0.262,0.127-0.51,0.174-0.745c0.047-0.234,0.07-0.448,0.07-0.641
	c0-0.349-0.072-0.594-0.216-0.732c-0.144-0.137-0.419-0.206-0.827-0.206c-0.2,0-0.405,0.032-0.614,0.094
	c-0.21,0.062-0.39,0.122-0.541,0.178l0.207-0.844c0.506-0.206,0.991-0.382,1.454-0.529c0.463-0.147,0.9-0.221,1.314-0.221
	c0.744,0,1.317,0.18,1.72,0.539c0.403,0.36,0.605,0.827,0.605,1.401c0,0.12-0.013,0.329-0.041,0.628
	c-0.028,0.3-0.08,0.575-0.155,0.825l-0.77,2.725c-0.063,0.219-0.12,0.469-0.169,0.751c-0.051,0.28-0.075,0.493-0.075,0.637
	c0,0.362,0.081,0.609,0.242,0.74c0.163,0.131,0.444,0.197,0.842,0.197c0.187,0,0.4-0.034,0.637-0.099
	C19.067,18.802,19.24,18.745,19.346,18.695L19.346,18.695z M19.541,7.255c0,0.475-0.179,0.88-0.539,1.213
	c-0.358,0.334-0.791,0.502-1.296,0.502c-0.508,0-0.94-0.167-1.303-0.502c-0.362-0.334-0.544-0.739-0.544-1.213
	c0-0.474,0.182-0.88,0.544-1.218C16.765,5.7,17.2,5.531,17.707,5.531c0.506,0,0.938,0.169,1.296,0.506
	C19.363,6.375,19.541,6.781,19.541,7.255L19.541,7.255z M19.541,7.255"/>
</svg>
