<!-- Generator: Adobe Illustrator 17.0.0, SVG Export Plug-In  -->
<svg version="1.1"
	 xmlns="http://www.w3.org/2000/svg" xmlns:xlink="http://www.w3.org/1999/xlink"
	 x="0px" y="0px" viewBox="0 0 43.292 40.784" enable-background="new 0 0 43.292 40.784"
	 xml:space="preserve">
<defs>
</defs>
<g>
	<path fill="#A0A2A6" d="M39.198,2.507h-5.937V1.586C33.261,0.711,32.549,0,31.675,0s-1.586,0.711-1.586,1.586v0.921H13.202V1.586
		C13.202,0.711,12.49,0,11.616,0S10.03,0.711,10.03,1.586v0.921H4.093C1.836,2.507,0,4.344,0,6.601v30.09
		c0,2.257,1.836,4.093,4.093,4.093h35.104c2.257,0,4.094-1.836,4.094-4.093V6.601C43.292,4.344,41.455,2.507,39.198,2.507z
		 M40.12,14.038V36.69c0,0.508-0.413,0.922-0.922,0.922H4.093c-0.508,0-0.921-0.414-0.921-0.922V14.038H40.12z M10.03,6.451
		c-0.524,0.456-0.835,1.12-0.835,1.821c0,1.335,1.086,2.421,2.421,2.421c1.335,0,2.422-1.086,2.422-2.421
		c0-0.701-0.312-1.366-0.836-1.821V5.679h16.888v0.772c-0.524,0.456-0.836,1.121-0.836,1.821c0,1.335,1.087,2.421,2.422,2.421
		s2.422-1.086,2.422-2.421c0-0.701-0.312-1.366-0.836-1.821V5.679h5.937c0.509,0,0.922,0.414,0.922,0.921v4.265H3.172V6.601
		c0-0.508,0.414-0.921,0.921-0.921h5.937V6.451z"/>
	<circle fill="#A0A2A6" cx="12.136" cy="18.657" r="2.303"/>
	<circle fill="#A0A2A6" cx="21.646" cy="18.657" r="2.303"/>
	<circle fill="#A0A2A6" cx="31.155" cy="18.657" r="2.303"/>
	<circle fill="#A0A2A6" cx="12.136" cy="25.166" r="2.303"/>
	<circle fill="#A0A2A6" cx="21.646" cy="25.166" r="2.303"/>
	<circle fill="#A0A2A6" cx="31.155" cy="25.166" r="2.303"/>
	<circle fill="#A0A2A6" cx="12.136" cy="32.676" r="2.303"/>
	<circle fill="#A0A2A6" cx="21.646" cy="32.676" r="2.303"/>
	<circle fill="#A0A2A6" cx="31.155" cy="32.676" r="2.303"/>
</g>
</svg>
