<!-- Generator: Adobe Illustrator 17.0.0, SVG Export Plug-In  -->
<svg version="1.1"
	 xmlns="http://www.w3.org/2000/svg" xmlns:xlink="http://www.w3.org/1999/xlink"
	 x="0px" y="0px" viewBox="0 0 33.566 35.042" enable-background="new 0 0 33.566 35.042"
	 xml:space="preserve">
<defs>
</defs>
<g>
	<clipPath id="SVGID_2_">
		<rect id="SVGID_1_" width="33.566" height="35.042"/>
	</clipPath>

		<path clip-path="url(#SVGID_2_)" fill="none" stroke-width="2.5" stroke-linecap="round" stroke-linejoin="round" stroke-miterlimit="10" d="
		M3.598,33.792c0,0-3.782-6.024-1.745-9.266c2.036-3.242,5.381-1.155,8.145-0.889c2.763,0.265,8.436-0.828,9.308-4.354
		c0.873-3.526-0.506-6.809-3.441-7.889c-4.128-1.519-4.588-4.335-4.878-5.644c-0.291-1.309,0.25-4.5,0.25-4.5"/>

		<path clip-path="url(#SVGID_2_)" fill="none" stroke-width="2.5" stroke-linecap="round" stroke-linejoin="round" stroke-miterlimit="10" d="
		M14.652,3.976c0,0-0.791,2.899,1.891,3.491c1.71,0.377,12.055-3.95,15.109,5.533c3.055,9.483-5.177,14.992-9.541,17.305
		c-4.363,2.312-10.95,0.911-12.55-1.001c-1.6-1.911-3.043-3.788-4.072-2.929c-1.878,1.566,1.997,6.4,1.997,6.4"/>

		<path clip-path="url(#SVGID_2_)" fill="none" stroke-width="2.5" stroke-linecap="round" stroke-linejoin="round" stroke-miterlimit="10" d="
		M27.538,13.11c0,0,1.28,1.677,0.689,4.737c-0.591,3.06-1.969,4.156-1.969,4.156"/>
</g>
</svg>
