<!-- Generator: Adobe Illustrator 17.0.0, SVG Export Plug-In  -->
<svg version="1.1"
	 xmlns="http://www.w3.org/2000/svg" xmlns:xlink="http://www.w3.org/1999/xlink"
	 x="0px" y="0px" viewBox="0 0 39.083 36.083" enable-background="new 0 0 39.083 36.083"
	 xml:space="preserve">
<defs>
</defs>
<polyline fill="none"  stroke-width="3.5" stroke-linecap="round" stroke-linejoin="round" stroke-miterlimit="10" points="
	37.333,34.333 1.75,34.333 1.75,1.75 "/>
<path fill="none"  stroke-width="3.5" stroke-linecap="round" stroke-linejoin="round" stroke-miterlimit="10" d="
	M12.168,28.457H9.501c-1.1,0-2-0.9-2-2V23.84c0-1.1,0.9-2,2-2h2.666c1.1,0,2,0.9,2,2v2.617
	C14.168,27.557,13.268,28.457,12.168,28.457z"/>
<path fill="none"  stroke-width="3.5" stroke-linecap="round" stroke-linejoin="round" stroke-miterlimit="10" d="
	M24.962,8.368l-2.666-0.001c-1.1,0-2-0.901-1.999-2.001l0.001-2.617c0-1.1,0.901-2,2.001-1.999l2.666,0.001
	c1.1,0,2,0.901,1.999,2.001l-0.001,2.617C26.962,7.468,26.062,8.368,24.962,8.368z"/>
<path fill="none"  stroke-width="3.5" stroke-linecap="round" stroke-linejoin="round" stroke-miterlimit="10" d="
	M32.613,28.457h-2.666c-1.1,0-2-0.9-2-2V23.84c0-1.1,0.9-2,2-2h2.666c1.1,0,2,0.9,2,2v2.617
	C34.613,27.557,33.713,28.457,32.613,28.457z"/>
<line fill="none"  stroke-width="3.5" stroke-linecap="round" stroke-linejoin="round" stroke-miterlimit="10" x1="14.168" y1="25.148" x2="27.947" y2="25.148"/>
<path fill="none"  stroke-width="3.5" stroke-linecap="round" stroke-linejoin="round" stroke-miterlimit="10" d="
	M11.397,21.84c-0.109,0.145,4.257-2.256,6.882-5.489c2.892-3.561,3.705-7.489,3.705-7.489"/>
</svg>
