<!-- Generator: Adobe Illustrator 17.0.0, SVG Export Plug-In  -->
<svg version="1.1"
	 xmlns="http://www.w3.org/2000/svg" xmlns:xlink="http://www.w3.org/1999/xlink" xmlns:a="http://ns.adobe.com/AdobeSVGViewerExtensions/3.0/"
	 x="0px" y="0px" viewBox="0 0 41.627 36.113" enable-background="new 0 0 41.627 36.113"
	 xml:space="preserve">
<defs>
</defs>
<g>
	<defs>
	</defs>
	<clipPath id="SVGID_2_">
			<rect id="SVGID_1_" x="0" width="41.627" height="36.113"/>
	</clipPath>

		<path clip-path="url(#SVGID_2_)" fill="none" stroke-width="2.5" stroke-linecap="round" stroke-linejoin="round" stroke-miterlimit="10" d="
		M5.838,24.55c-0.375,0.19-0.782,0.295-1.207,0.295c-1.867,0-3.381-2.01-3.381-4.49c0-2.479,1.514-4.489,3.381-4.489
		c0.401,0,0.786,0.093,1.143,0.263"/>

		<path clip-path="url(#SVGID_2_)" fill="none" stroke-width="2.5" stroke-linecap="round" stroke-linejoin="round" stroke-miterlimit="10" d="
		M36.119,24.55c0.348,0.19,0.726,0.295,1.12,0.295c1.734,0,3.138-2.01,3.138-4.49c0-2.479-1.404-4.489-3.138-4.489
		c-0.372,0-0.729,0.093-1.06,0.263"/>

		<path clip-path="url(#SVGID_2_)" fill="none" stroke-width="2.5" stroke-linecap="round" stroke-linejoin="round" stroke-miterlimit="10" d="
		M36.116,20.372c-0.15,8.028-6.93,14.491-15.272,14.491c-8.436,0-15.275-6.61-15.275-14.764c0-2.138,0.471-4.171,1.317-6.006"/>

		<path clip-path="url(#SVGID_2_)" fill="none" stroke-width="2.5" stroke-linecap="round" stroke-linejoin="round" stroke-miterlimit="10" d="
		M7.298,14.016c1.76-3.472,3.707-4.683,5.173-5.142c2.145-0.672,4.626-0.161,9.565,0.857c1.106,0.228,2.795,0.614,5.031,0.357
		c1.21-0.139,2.187-0.42,2.835-0.643c0.223,0.791,0.608,1.729,1.275,2.643c0.585,0.801,1.148,1.255,1.275,1.357
		c0.606,0.48,1.117,0.702,1.276,0.785c0.739,0.389,2.346,1.777,2.184,6.142c0.776-1.153,0.876-3.026,1.217-5.499
		c0.173-1.254,0.427-3.289-0.567-5.428c-0.37-0.796-0.929-1.998-2.267-2.642c-1.188-0.571-2.346-0.392-2.835-0.286
		c-1.014-1.756-2.165-2.773-2.976-3.356c-4.846-3.485-11.319-1.374-15.092-0.143c-1.626,0.53-3.112,1.198-4.535,2.428
		c-0.83,0.718-2.142,1.88-2.834,3.857c-0.616,1.758-0.46,3.355-0.355,4.427c0.103,1.052,0.317,1.909,0.496,2.5
		C6.542,15.492,6.92,14.754,7.298,14.016z"/>

		<path clip-path="url(#SVGID_2_)" fill="none" stroke-width="2.5" stroke-linecap="round" stroke-linejoin="round" stroke-miterlimit="10" d="
		M17.247,27.819c0.742-1.053,2.129-1.761,3.716-1.761c1.588,0,2.975,0.708,3.717,1.762"/>

		<path clip-path="url(#SVGID_2_)" fill="none" stroke-width="2.5" stroke-linecap="round" stroke-linejoin="round" stroke-miterlimit="10" d="
		M13.972,18.312c0.336-0.248,1.164-0.787,2.333-0.833c0.681-0.028,1.233,0.122,1.584,0.25"/>

		<path clip-path="url(#SVGID_2_)" fill="none" stroke-width="2.5" stroke-linecap="round" stroke-linejoin="round" stroke-miterlimit="10" d="
		M27.655,18.312c-0.336-0.248-1.164-0.787-2.333-0.833c-0.681-0.028-1.233,0.122-1.584,0.25"/>
</g>
</svg>
