<!-- Generator: Adobe Illustrator 17.0.0, SVG Export Plug-In  -->
<svg version="1.1"
	 xmlns="http://www.w3.org/2000/svg"
	 x="0px" y="0px" viewBox="0 0 38.305 34.042" enable-background="new 0 0 38.305 34.042"
	 xml:space="preserve">
<g>
	  <clipPath id="SVGID_2_">
			<rect id="SVGID_1_" x="0" width="38.305" height="34.042"/>
    </clipPath>

		<path clip-path="url(#SVGID_2_)" fill="none" stroke-width="2.5" stroke-linecap="round" stroke-linejoin="round" stroke-miterlimit="10" d="
		M25.658,24.266c-1.128,1.6-3.234,2.676-5.646,2.676c-2.413,0-4.52-1.077-5.648-2.677"/>

		<path clip-path="url(#SVGID_2_)" fill="none" stroke-width="2.5" stroke-linecap="round" stroke-linejoin="round" stroke-miterlimit="10" d="
		M33.158,15.964c0.353,1.17,0.542,2.407,0.542,3.688c0,7.257-6.079,13.14-13.578,13.14c-7.498,0-13.577-5.883-13.577-13.14
		c0-1.741,0.119-2.804,0.754-4.324"/>

		<path clip-path="url(#SVGID_2_)" fill="none" stroke-width="2.5" stroke-linecap="round" stroke-linejoin="round" stroke-miterlimit="10" d="
		M12.554,19.185c0-1.178,0.955-2.134,2.134-2.134c1.178,0,2.133,0.956,2.133,2.134"/>

		<path clip-path="url(#SVGID_2_)" fill="none" stroke-width="2.5" stroke-linecap="round" stroke-linejoin="round" stroke-miterlimit="10" d="
		M23.91,19.185c0-1.178,0.955-2.134,2.134-2.134c1.178,0,2.133,0.956,2.133,2.134"/>

		<path clip-path="url(#SVGID_2_)" fill="none" stroke-width="2.5" stroke-linecap="round" stroke-linejoin="round" stroke-miterlimit="10" d="
		M7.611,14.721c1.377-3.511,6.753,0.881,17.729-5.038c0.978-0.527,1.962-0.543,2.537-0.8c0.254,0.762,0.665,1.659,1.331,2.515
		c0.584,0.751,1.125,1.163,1.248,1.255c0.582,0.435,3.242,2.139,3.648,5.465c0.631-1.178,1.716-6.237-0.169-9.634
		c-0.413-0.746-0.974-1.905-2.233-2.456c-1.117-0.489-2.159-0.244-2.597-0.11C26.393-0.129,15.767,0.321,10.34,3.744
		C7.177,5.74,4.115,8.636,2.633,13.823c-0.5,1.748-2.247,6.517-0.857,12.446c1.468,6.261,8.808,5.954,9.009,6.523
		C11.081,32.045,4.263,21.828,7.611,14.721z"/>

		<path clip-path="url(#SVGID_2_)" fill="none" stroke-width="2.5" stroke-linecap="round" stroke-linejoin="round" stroke-miterlimit="10" d="
		M34.125,17.051c0,0-0.513,6.102,1.117,8.552c1.631,2.45,1.813,3.204,1.813,3.204s-2.405,2.637-5.37,2.51
		c-1.873-0.08-3.508-1.093-3.508-1.093"/>
</g>
</svg>
