<!-- Generator: Adobe Illustrator 17.0.0, SVG Export Plug-In  -->
<svg version="1.1"
	 xmlns="http://www.w3.org/2000/svg" xmlns:xlink="http://www.w3.org/1999/xlink"
	 x="0px" y="0px" viewBox="0 0 20.377 22.492" enable-background="new 0 0 20.377 22.492"
	 xml:space="preserve">
<defs>
</defs>
<circle fill="none" stroke-width="1.3" stroke-linecap="round" stroke-linejoin="round" stroke-miterlimit="10" cx="9.806" cy="9.806" r="9.156"/>
<line fill="none" stroke-width="1.3" stroke-linecap="round" stroke-linejoin="round" stroke-miterlimit="10" x1="19.727" y1="21.842" x2="16.654" y2="18.769"/>
<path fill="none" stroke-width="1.3" stroke-linecap="round" stroke-linejoin="round" stroke-miterlimit="10" d="
	M10.067,5.348c0.554,0.148,1.139,0.023,1.707-0.061c0.567-0.084,1.186-0.118,1.675,0.181c0.49,0.299,0.729,1.052,0.327,1.461
	c-0.37,0.376-0.985,0.254-1.511,0.229c-0.675-0.033-1.344,0.139-1.987,0.347C9.635,7.712,8.999,7.957,8.334,8.076
	c-0.666,0.12-1.377,0.105-1.986-0.19C4.996,7.23,4.991,5.538,6.245,4.766c0.489-0.301,1.289-0.48,1.844-0.369
	C8.82,4.542,9.351,5.157,10.067,5.348z"/>
<path fill="none" stroke-width="1.3" stroke-linecap="round" stroke-linejoin="round" stroke-miterlimit="10" d="
	M4.959,9.153c0.733,1.09,1.92,1.536,3.193,1.307c0.666-0.12,1.301-0.365,1.944-0.572c0.643-0.208,1.312-0.38,1.987-0.347
	c0.837,0.041,1.222-0.09,1.952-0.452"/>
<path fill="none" stroke-width="1.3" stroke-linecap="round" stroke-linejoin="round" stroke-miterlimit="10" d="
	M5.626,13.271c0,1.283,1.41,2.17,2.682,1.942c0.666-0.12,2.301-0.365,2.944-0.572c0.643-0.208,1.312-0.309,1.987-0.347
	c0.428-0.024,0.782-0.284,1.512-0.647"/>
<path fill="none" stroke-width="1.3" stroke-linecap="round" stroke-linejoin="round" stroke-miterlimit="10" d="
	M7.043,12.482c0.877-0.036,1.596,0.427,2.531,0.259c0.666-0.12,1.301-0.365,1.944-0.572c0.643-0.208,1.312-0.38,1.987-0.347
	c0.527,0.026,1.142,0.148,1.511-0.229c0.37-0.377,0.503-0.932,0.418-1.454"/>
</svg>
