<!-- Generator: Adobe Illustrator 17.0.0, SVG Export Plug-In  -->
<svg version="1.1"
	 xmlns="http://www.w3.org/2000/svg" xmlns:xlink="http://www.w3.org/1999/xlink"
	 x="0px" y="0px" viewBox="0 0 15.339 20.98" enable-background="new 0 0 15.339 20.98"
	 xml:space="preserve">
<defs>
</defs>
<g>

		<rect x="6.527" y="1.114" transform="matrix(0.7071 0.7071 -0.7071 0.7071 6.3987 -3.9998)" fill="none" stroke="#FFFFFF" stroke-width="1.3" stroke-linecap="round" stroke-linejoin="round" stroke-miterlimit="10" width="3.002" height="9.221"/>

		<rect x="3.233" y="17.783" fill="none" stroke="#FFFFFF" stroke-width="1.3" stroke-linecap="round" stroke-linejoin="round" stroke-miterlimit="10" width="11.22" height="2.547"/>
	<path fill="none" stroke="#FFFFFF" stroke-width="1.3" stroke-linecap="round" stroke-linejoin="round" stroke-miterlimit="10" d="
		M11.631,2.808L10.944,2.12c-0.195-0.195-0.195-0.512,0-0.707l0.617-0.617c0.195-0.195,0.512-0.195,0.707,0l0.688,0.688
		c0.195,0.195,0.195,0.512,0,0.707l-0.617,0.617C12.143,3.003,11.827,3.003,11.631,2.808z"/>
	<path fill="none" stroke="#FFFFFF" stroke-width="1.3" stroke-linecap="round" stroke-linejoin="round" stroke-miterlimit="10" d="
		M3.768,10.672L3.08,9.984c-0.195-0.195-0.195-0.512,0-0.707L3.717,8.64c0.195-0.195,0.512-0.195,0.707,0l0.688,0.688
		c0.195,0.195,0.195,0.512,0,0.707l-0.637,0.637C4.279,10.867,3.963,10.867,3.768,10.672z"/>
	<path fill="none" stroke="#FFFFFF" stroke-width="1.3" stroke-linecap="round" stroke-linejoin="round" stroke-miterlimit="10" d="
		M10.497,5.724c2.439,0.833,4.192,3.144,4.192,5.864c0,3.421-2.774,6.195-6.195,6.195c-2.391,0-4.465-1.354-5.498-3.337"/>

		<line fill="none" stroke="#FFFFFF" stroke-width="1.3" stroke-linecap="round" stroke-linejoin="round" stroke-miterlimit="10" x1="0.65" y1="14.249" x2="5.346" y2="14.249"/>
</g>
</svg>
