<!-- Generator: Adobe Illustrator 17.0.0, SVG Export Plug-In  -->
<svg version="1.1"
	 xmlns="http://www.w3.org/2000/svg" xmlns:xlink="http://www.w3.org/1999/xlink" xmlns:a="http://ns.adobe.com/AdobeSVGViewerExtensions/3.0/"
	 x="0px" y="0px" viewBox="0 0 25.607 21.863" enable-background="new 0 0 25.607 21.863"
	 xml:space="preserve">
<defs>
</defs>
<g>
	<defs>
		<rect id="SVGID_1_" x="0" y="0.001" width="25.606" height="21.862"/>
	</defs>
	<clipPath id="SVGID_2_">
		<use xlink:href="#SVGID_1_"  overflow="visible"/>
	</clipPath>

		<path clip-path="url(#SVGID_2_)" fill="none" stroke="#9C7697" stroke-width="1.3" stroke-linecap="round" stroke-linejoin="round" stroke-miterlimit="10" d="
		M3.588,12.4c-1.622,0-2.938-1.315-2.938-2.938c0-1.622,1.316-2.937,2.938-2.937"/>

		<path clip-path="url(#SVGID_2_)" fill="none" stroke="#9C7697" stroke-width="1.3" stroke-linecap="round" stroke-linejoin="round" stroke-miterlimit="10" d="
		M5.057,18.275c-1.622,0-2.938-1.315-2.938-2.938c0-1.622,1.316-2.937,2.938-2.937"/>

		<path clip-path="url(#SVGID_2_)" fill="none" stroke="#9C7697" stroke-width="1.3" stroke-linecap="round" stroke-linejoin="round" stroke-miterlimit="10" d="
		M17.017,9.463c1.622,0,2.938,1.315,2.938,2.938c0,1.622-1.316,2.937-2.938,2.937"/>

		<path clip-path="url(#SVGID_2_)" fill="none" stroke="#9C7697" stroke-width="1.3" stroke-linecap="round" stroke-linejoin="round" stroke-miterlimit="10" d="
		M20.53,8.747c1.073,0.856,1.76,2.175,1.76,3.654"/>

		<path clip-path="url(#SVGID_2_)" fill="none" stroke="#9C7697" stroke-width="1.3" stroke-linecap="round" stroke-linejoin="round" stroke-miterlimit="10" d="
		M20.53,16.054c1.073-0.856,1.76-2.175,1.76-3.654"/>

		<path clip-path="url(#SVGID_2_)" fill="none" stroke="#9C7697" stroke-width="1.3" stroke-linecap="round" stroke-linejoin="round" stroke-miterlimit="10" d="
		M14.457,3.588c1.622,0,2.938,1.315,2.938,2.938c0,1.622-1.316,2.937-2.938,2.937"/>

		<path clip-path="url(#SVGID_2_)" fill="none" stroke="#9C7697" stroke-width="1.3" stroke-linecap="round" stroke-linejoin="round" stroke-miterlimit="10" d="
		M10.302,18.275c1.622,0,2.938,1.315,2.938,2.938"/>

		<path clip-path="url(#SVGID_2_)" fill="none" stroke="#9C7697" stroke-width="1.3" stroke-linecap="round" stroke-linejoin="round" stroke-miterlimit="10" d="
		M10.988,15.338c2.882,0,5.219,2.337,5.219,5.219"/>

		<line clip-path="url(#SVGID_2_)" fill="none" stroke="#9C7697" stroke-width="1.3" stroke-linecap="round" stroke-linejoin="round" stroke-miterlimit="10" x1="3.588" y1="6.525" x2="14.079" y2="6.525"/>

		<line clip-path="url(#SVGID_2_)" fill="none" stroke="#9C7697" stroke-width="1.3" stroke-linecap="round" stroke-linejoin="round" stroke-miterlimit="10" x1="17.017" y1="9.463" x2="3.588" y2="9.463"/>

		<line clip-path="url(#SVGID_2_)" fill="none" stroke="#9C7697" stroke-width="1.3" stroke-linecap="round" stroke-linejoin="round" stroke-miterlimit="10" x1="3.588" y1="12.4" x2="17.017" y2="12.4"/>

		<line clip-path="url(#SVGID_2_)" fill="none" stroke="#9C7697" stroke-width="1.3" stroke-linecap="round" stroke-linejoin="round" stroke-miterlimit="10" x1="17.017" y1="15.338" x2="5.057" y2="15.338"/>

		<line clip-path="url(#SVGID_2_)" fill="none" stroke="#9C7697" stroke-width="1.3" stroke-linecap="round" stroke-linejoin="round" stroke-miterlimit="10" x1="5.057" y1="18.275" x2="10.303" y2="18.275"/>

		<path clip-path="url(#SVGID_2_)" fill="none" stroke="#9C7697" stroke-width="1.3" stroke-linecap="round" stroke-linejoin="round" stroke-miterlimit="10" d="
		M10.833,3.588c-1.622,0-2.938-1.315-2.938-2.938"/>

		<path clip-path="url(#SVGID_2_)" fill="none" stroke="#9C7697" stroke-width="1.3" stroke-linecap="round" stroke-linejoin="round" stroke-miterlimit="10" d="
		M10.148,6.525c-2.882,0-5.219-2.337-5.219-5.219"/>

		<line clip-path="url(#SVGID_2_)" fill="none" stroke="#9C7697" stroke-width="1.3" stroke-linecap="round" stroke-linejoin="round" stroke-miterlimit="10" x1="14.079" y1="3.588" x2="10.833" y2="3.588"/>

		<line clip-path="url(#SVGID_2_)" fill="none" stroke="#9C7697" stroke-width="1.3" stroke-linecap="round" stroke-linejoin="round" stroke-miterlimit="10" x1="23.957" y1="12.4" x2="24.957" y2="12.4"/>

		<line clip-path="url(#SVGID_2_)" fill="none" stroke="#9C7697" stroke-width="1.3" stroke-linecap="round" stroke-linejoin="round" stroke-miterlimit="10" x1="23.066" y1="9.592" x2="23.804" y2="9.067"/>

		<line clip-path="url(#SVGID_2_)" fill="none" stroke="#9C7697" stroke-width="1.3" stroke-linecap="round" stroke-linejoin="round" stroke-miterlimit="10" x1="23.066" y1="15.209" x2="23.804" y2="15.734"/>
</g>
</svg>
